 http://img401.imageshack.us/img401/945/intime.jpg


Verenigde Staten
Sciencefiction / Thriller
109 minuten

geregisseerd door Andrew Niccol
met Amanda Seyfried, Justin Timberlake en Olivia Wilde

Welkom in een wereld waar tijd het ultieme betaalmiddel is geworden. Het verouderingsproces stopt op de leeftijd van 25 jaar, maar er zit een addertje onder het gras: je bent genetisch gemanipuleerd om nog één jaar te leven, tenzij je je nakende dood kan afkopen. De rijken "verdienen" tientallen jaren per keer (en blijven 25 jaar), waardoor ze nagenoeg onsterfelijk worden, terwijl de rest genoeg uren bij elkaar smeekt, leent of steelt om de dag door te komen. Wanneer een jonge man (Timberlake) in het bezit komt van een fortuin aan tijd, wordt hij valselijk beschuldigd van moord. Hij wordt gedwongen op de vlucht te slaan met een mooie gijzelaar (Seyfried). De liefde van het duo, dat van minuut tot minuut leeft, wordt een sterk wapen in hun oorlog tegen het systeem.



Vertaald door Simply ReleaseS Toppers
Markow87




Screenshots:
 
http://www.hotimg.com/image/Qfz3sTg 
http://www.hotimg.com/image/Qj3vNtf 
http://www.hotimg.com/image/BXq3Fye 
http://www.hotimg.com/image/nWVjWSz




INFO;

Format                                   : Matroska
Format version                           : Version 2
File size                                : 2.79 GiB
Duration                                 : 1h 49mn
Overall bit rate                         : 3 660 Kbps
Encoded date                             : UTC 2012-01-19 11:39:18
Writing application                      : mkvmerge v5.2.1 ('A Far Off Place') built on Jan  2 2012 23:21:10
Writing library                          : libebml v1.2.3 + libmatroska v1.3.0

Video
ID                                       : 1
Format                                   : MPEG-4 Visual
Format profile                           : Advanced Simple@L5
Format settings, BVOP                    : Yes
Format settings, QPel                    : No
Format settings, GMC                     : No warppoints
Format settings, Matrix                  : Default (MPEG)
Codec ID                                 : XVID
Codec ID/Hint                            : XviD
Duration                                 : 1h 49mn
Bit rate                                 : 2 947 Kbps
Width                                    : 1 280 pixels
Height                                   : 544 pixels
Display aspect ratio                     : 2.35:1
Frame rate                               : 23.976 fps
Color space                              : YUV
Chroma subsampling                       : 4:2:0
Bit depth                                : 8 bits
Scan type                                : Progressive
Compression mode                         : Lossy
Bits/(Pixel*Frame)                       : 0.177
Stream size                              : 2.25 GiB (81%)
Writing library                          : XviD 1.2.1 (UTC 2008-12-04)
Default                                  : Yes
Forced                                   : No

Audio
ID                                       : 2
Format                                   : AC-3
Format/Info                              : Audio Coding 3
Mode extension                           : CM (complete main)
Muxing mode                              : Header stripping
Codec ID                                 : A_AC3
Duration                                 : 1h 49mn
Bit rate mode                            : Constant
Bit rate                                 : 640 Kbps
Channel(s)                               : 6 channels
Channel positions                        : Front: L C R, Side: L R, LFE
Sampling rate                            : 48.0 KHz
Bit depth                                : 16 bits
Compression mode                         : Lossy
Stream size                              : 500 MiB (17%)
Default                                  : Yes
Forced                                   : No

Text #1
ID                                       : 3
Format                                   : UTF-8
Codec ID                                 : S_TEXT/UTF8
Codec ID/Info                            : UTF-8 Plain Text
Language                                 : Dutch
Default                                  : Yes
Forced                                   : Yes

Text #2
ID                                       : 4
Format                                   : UTF-8
Codec ID                                 : S_TEXT/UTF8
Codec ID/Info                            : UTF-8 Plain Text
Language                                 : English
Default                                  : No
Forced                                   : No



 
http://www.imdb.com/title/tt1637688/ 
http://www.moviemeter.nl/film/75622




Deze film wordt u aangeboden door het DutchReleaseTeam.
Voor de reviews van de nieuwste films, muziek, series, games etc
ga dan eens naar http://www.hetmultimediacafe.be/